<svg width="59" height="70" viewBox="0 0 59 70" fill="none" xmlns="http://www.w3.org/2000/svg">
<rect x="53.3407" y="7.35229" width="5.65957" height="6.3927" rx="2" fill="#111949"/>
<rect x="53.3407" y="14.7009" width="5.65957" height="6.3927" rx="2" fill="black"/>
<rect x="53.3407" y="22.0549" width="5.65957" height="6.3927" rx="2" fill="#2365D2"/>
<rect x="11.3512" y="1.5" width="41.6808" height="67" rx="3.5" fill="#111949" stroke="black" stroke-width="3"/>
<path d="M50.9577 12.1924V8.51684C50.9577 5.75542 48.7192 3.51685 45.9577 3.51685H18.845C16.0835 3.51685 13.845 5.75542 13.845 8.51684V61.4849C13.845 64.2463 16.0835 66.4849 18.845 66.4849H45.9577C48.7192 66.4849 50.9577 64.2463 50.9577 61.4849V29.1238" stroke="#2365D2" stroke-width="4"/>
<path d="M11.4617 19.2237H7.40777C4.97343 19.2237 3 21.1971 3 23.6315V23.6315C3 26.0658 4.97343 28.0392 7.40777 28.0392H11.4617M11.4617 36.8548H3M11.4617 45.5304H7.3378C4.9421 45.5304 3 47.4725 3 49.8682V49.8682C3 52.2639 4.9421 54.206 7.3378 54.206H11.4617M11.4617 63.0215H3M11.4617 10.5481H3" stroke="#111949" stroke-width="6"/>
</svg>
